<svg width="750" height="350" viewBox="0 0 750 350" fill="none" xmlns="http://www.w3.org/2000/svg">
<rect width="750" height="350" rx="15" fill="white"/>
<path d="M343.722 175H339.222L347.415 151.727H352.619L360.824 175H356.324L350.108 156.5H349.926L343.722 175ZM343.869 165.875H356.142V169.261H343.869V165.875ZM367.821 164.773V175H363.707V157.545H367.639V160.511H367.844C368.245 159.534 368.885 158.758 369.764 158.182C370.651 157.606 371.745 157.318 373.048 157.318C374.253 157.318 375.302 157.576 376.196 158.091C377.098 158.606 377.795 159.352 378.287 160.33C378.787 161.307 379.033 162.492 379.026 163.886V175H374.912V164.523C374.912 163.356 374.609 162.443 374.003 161.784C373.404 161.125 372.575 160.795 371.514 160.795C370.795 160.795 370.154 160.955 369.594 161.273C369.041 161.583 368.605 162.034 368.287 162.625C367.976 163.216 367.821 163.932 367.821 164.773ZM390.798 181.909C389.321 181.909 388.052 181.708 386.991 181.307C385.931 180.913 385.079 180.383 384.435 179.716C383.791 179.049 383.344 178.311 383.094 177.5L386.798 176.602C386.965 176.943 387.207 177.28 387.526 177.614C387.844 177.955 388.272 178.235 388.81 178.455C389.355 178.682 390.041 178.795 390.866 178.795C392.033 178.795 392.999 178.511 393.764 177.943C394.529 177.383 394.912 176.458 394.912 175.17V171.864H394.707C394.495 172.288 394.185 172.723 393.776 173.17C393.374 173.617 392.84 173.992 392.173 174.295C391.514 174.598 390.685 174.75 389.685 174.75C388.344 174.75 387.128 174.436 386.037 173.807C384.954 173.17 384.09 172.223 383.446 170.966C382.81 169.701 382.491 168.117 382.491 166.216C382.491 164.299 382.81 162.682 383.446 161.364C384.09 160.038 384.957 159.034 386.048 158.352C387.139 157.663 388.355 157.318 389.696 157.318C390.719 157.318 391.56 157.492 392.219 157.841C392.885 158.182 393.416 158.595 393.81 159.08C394.204 159.557 394.503 160.008 394.707 160.432H394.935V157.545H398.991V175.284C398.991 176.777 398.635 178.011 397.923 178.989C397.211 179.966 396.238 180.697 395.003 181.182C393.768 181.667 392.366 181.909 390.798 181.909ZM390.832 171.523C391.704 171.523 392.446 171.311 393.06 170.886C393.673 170.462 394.139 169.852 394.457 169.057C394.776 168.261 394.935 167.307 394.935 166.193C394.935 165.095 394.776 164.133 394.457 163.307C394.147 162.481 393.685 161.841 393.071 161.386C392.465 160.924 391.719 160.693 390.832 160.693C389.916 160.693 389.151 160.932 388.537 161.409C387.923 161.886 387.461 162.542 387.151 163.375C386.84 164.201 386.685 165.14 386.685 166.193C386.685 167.261 386.84 168.197 387.151 169C387.469 169.795 387.935 170.417 388.548 170.864C389.17 171.303 389.931 171.523 390.832 171.523ZM410.798 181.909C409.321 181.909 408.052 181.708 406.991 181.307C405.931 180.913 405.079 180.383 404.435 179.716C403.791 179.049 403.344 178.311 403.094 177.5L406.798 176.602C406.965 176.943 407.207 177.28 407.526 177.614C407.844 177.955 408.272 178.235 408.81 178.455C409.355 178.682 410.041 178.795 410.866 178.795C412.033 178.795 412.999 178.511 413.764 177.943C414.529 177.383 414.912 176.458 414.912 175.17V171.864H414.707C414.495 172.288 414.185 172.723 413.776 173.17C413.374 173.617 412.84 173.992 412.173 174.295C411.514 174.598 410.685 174.75 409.685 174.75C408.344 174.75 407.128 174.436 406.037 173.807C404.954 173.17 404.09 172.223 403.446 170.966C402.81 169.701 402.491 168.117 402.491 166.216C402.491 164.299 402.81 162.682 403.446 161.364C404.09 160.038 404.957 159.034 406.048 158.352C407.139 157.663 408.355 157.318 409.696 157.318C410.719 157.318 411.56 157.492 412.219 157.841C412.885 158.182 413.416 158.595 413.81 159.08C414.204 159.557 414.503 160.008 414.707 160.432H414.935V157.545H418.991V175.284C418.991 176.777 418.635 178.011 417.923 178.989C417.211 179.966 416.238 180.697 415.003 181.182C413.768 181.667 412.366 181.909 410.798 181.909ZM410.832 171.523C411.704 171.523 412.446 171.311 413.06 170.886C413.673 170.462 414.139 169.852 414.457 169.057C414.776 168.261 414.935 167.307 414.935 166.193C414.935 165.095 414.776 164.133 414.457 163.307C414.147 162.481 413.685 161.841 413.071 161.386C412.465 160.924 411.719 160.693 410.832 160.693C409.916 160.693 409.151 160.932 408.537 161.409C407.923 161.886 407.461 162.542 407.151 163.375C406.84 164.201 406.685 165.14 406.685 166.193C406.685 167.261 406.84 168.197 407.151 169C407.469 169.795 407.935 170.417 408.548 170.864C409.17 171.303 409.931 171.523 410.832 171.523ZM430.821 175.341C429.116 175.341 427.639 174.966 426.389 174.216C425.139 173.466 424.17 172.417 423.48 171.068C422.798 169.72 422.457 168.144 422.457 166.341C422.457 164.538 422.798 162.958 423.48 161.602C424.17 160.246 425.139 159.193 426.389 158.443C427.639 157.693 429.116 157.318 430.821 157.318C432.526 157.318 434.003 157.693 435.253 158.443C436.503 159.193 437.469 160.246 438.151 161.602C438.84 162.958 439.185 164.538 439.185 166.341C439.185 168.144 438.84 169.72 438.151 171.068C437.469 172.417 436.503 173.466 435.253 174.216C434.003 174.966 432.526 175.341 430.821 175.341ZM430.844 172.045C431.768 172.045 432.541 171.792 433.162 171.284C433.783 170.769 434.245 170.08 434.548 169.216C434.859 168.352 435.014 167.39 435.014 166.33C435.014 165.261 434.859 164.295 434.548 163.432C434.245 162.561 433.783 161.867 433.162 161.352C432.541 160.837 431.768 160.58 430.844 160.58C429.897 160.58 429.109 160.837 428.48 161.352C427.859 161.867 427.393 162.561 427.082 163.432C426.779 164.295 426.628 165.261 426.628 166.33C426.628 167.39 426.779 168.352 427.082 169.216C427.393 170.08 427.859 170.769 428.48 171.284C429.109 171.792 429.897 172.045 430.844 172.045ZM451.392 157.545V160.727H441.358V157.545H451.392ZM443.835 153.364H447.949V169.75C447.949 170.303 448.032 170.727 448.199 171.023C448.373 171.311 448.6 171.508 448.881 171.614C449.161 171.72 449.472 171.773 449.812 171.773C450.07 171.773 450.305 171.754 450.517 171.716C450.737 171.678 450.903 171.644 451.017 171.614L451.71 174.83C451.491 174.905 451.176 174.989 450.767 175.08C450.366 175.17 449.873 175.223 449.29 175.239C448.259 175.269 447.331 175.114 446.506 174.773C445.68 174.424 445.025 173.886 444.54 173.159C444.063 172.432 443.828 171.523 443.835 170.432V153.364ZM459.855 175.352C458.749 175.352 457.753 175.155 456.866 174.761C455.988 174.36 455.291 173.769 454.776 172.989C454.268 172.208 454.014 171.246 454.014 170.102C454.014 169.117 454.196 168.303 454.56 167.659C454.923 167.015 455.42 166.5 456.048 166.114C456.677 165.727 457.385 165.436 458.173 165.239C458.969 165.034 459.791 164.886 460.639 164.795C461.662 164.689 462.491 164.595 463.128 164.511C463.764 164.42 464.226 164.284 464.514 164.102C464.81 163.913 464.957 163.621 464.957 163.227V163.159C464.957 162.303 464.704 161.64 464.196 161.17C463.688 160.701 462.957 160.466 462.003 160.466C460.995 160.466 460.196 160.686 459.605 161.125C459.022 161.564 458.628 162.083 458.423 162.682L454.582 162.136C454.885 161.076 455.385 160.189 456.082 159.477C456.779 158.758 457.632 158.22 458.639 157.864C459.647 157.5 460.76 157.318 461.98 157.318C462.821 157.318 463.658 157.417 464.491 157.614C465.325 157.811 466.086 158.136 466.776 158.591C467.465 159.038 468.018 159.648 468.435 160.42C468.859 161.193 469.071 162.159 469.071 163.318V175H465.116V172.602H464.98C464.73 173.087 464.378 173.542 463.923 173.966C463.476 174.383 462.912 174.72 462.23 174.977C461.556 175.227 460.764 175.352 459.855 175.352ZM460.923 172.33C461.749 172.33 462.465 172.167 463.071 171.841C463.677 171.508 464.143 171.068 464.469 170.523C464.802 169.977 464.969 169.383 464.969 168.739V166.682C464.84 166.788 464.62 166.886 464.31 166.977C464.007 167.068 463.666 167.148 463.287 167.216C462.908 167.284 462.533 167.345 462.162 167.398C461.791 167.451 461.469 167.496 461.196 167.534C460.582 167.617 460.033 167.754 459.548 167.943C459.063 168.133 458.681 168.398 458.401 168.739C458.12 169.072 457.98 169.504 457.98 170.034C457.98 170.792 458.257 171.364 458.81 171.75C459.363 172.136 460.067 172.33 460.923 172.33ZM486.168 175.352C485.062 175.352 484.065 175.155 483.179 174.761C482.3 174.36 481.603 173.769 481.088 172.989C480.58 172.208 480.327 171.246 480.327 170.102C480.327 169.117 480.509 168.303 480.872 167.659C481.236 167.015 481.732 166.5 482.361 166.114C482.99 165.727 483.698 165.436 484.486 165.239C485.281 165.034 486.103 164.886 486.952 164.795C487.974 164.689 488.804 164.595 489.44 164.511C490.077 164.42 490.539 164.284 490.827 164.102C491.122 163.913 491.27 163.621 491.27 163.227V163.159C491.27 162.303 491.016 161.64 490.509 161.17C490.001 160.701 489.27 160.466 488.315 160.466C487.308 160.466 486.509 160.686 485.918 161.125C485.334 161.564 484.94 162.083 484.736 162.682L480.895 162.136C481.198 161.076 481.698 160.189 482.395 159.477C483.092 158.758 483.944 158.22 484.952 157.864C485.959 157.5 487.073 157.318 488.293 157.318C489.134 157.318 489.971 157.417 490.804 157.614C491.637 157.811 492.399 158.136 493.088 158.591C493.777 159.038 494.33 159.648 494.747 160.42C495.171 161.193 495.384 162.159 495.384 163.318V175H491.429V172.602H491.293C491.043 173.087 490.69 173.542 490.236 173.966C489.789 174.383 489.224 174.72 488.543 174.977C487.868 175.227 487.077 175.352 486.168 175.352ZM487.236 172.33C488.062 172.33 488.777 172.167 489.384 171.841C489.99 171.508 490.455 171.068 490.781 170.523C491.115 169.977 491.281 169.383 491.281 168.739V166.682C491.152 166.788 490.933 166.886 490.622 166.977C490.319 167.068 489.978 167.148 489.599 167.216C489.221 167.284 488.846 167.345 488.474 167.398C488.103 167.451 487.781 167.496 487.509 167.534C486.895 167.617 486.346 167.754 485.861 167.943C485.376 168.133 484.993 168.398 484.713 168.739C484.433 169.072 484.293 169.504 484.293 170.034C484.293 170.792 484.569 171.364 485.122 171.75C485.675 172.136 486.38 172.33 487.236 172.33ZM503.634 164.773V175H499.52V157.545H503.452V160.511H503.656C504.058 159.534 504.698 158.758 505.577 158.182C506.463 157.606 507.558 157.318 508.861 157.318C510.065 157.318 511.115 157.576 512.009 158.091C512.91 158.606 513.607 159.352 514.099 160.33C514.599 161.307 514.846 162.492 514.838 163.886V175H510.724V164.523C510.724 163.356 510.421 162.443 509.815 161.784C509.217 161.125 508.387 160.795 507.327 160.795C506.607 160.795 505.967 160.955 505.406 161.273C504.853 161.583 504.418 162.034 504.099 162.625C503.789 163.216 503.634 163.932 503.634 164.773ZM525.497 175.307C524.126 175.307 522.899 174.955 521.815 174.25C520.732 173.545 519.876 172.523 519.247 171.182C518.618 169.841 518.304 168.212 518.304 166.295C518.304 164.356 518.622 162.72 519.259 161.386C519.902 160.045 520.77 159.034 521.861 158.352C522.952 157.663 524.168 157.318 525.509 157.318C526.531 157.318 527.372 157.492 528.031 157.841C528.69 158.182 529.213 158.595 529.599 159.08C529.986 159.557 530.285 160.008 530.497 160.432H530.668V151.727H534.793V175H530.747V172.25H530.497C530.285 172.674 529.978 173.125 529.577 173.602C529.175 174.072 528.645 174.473 527.986 174.807C527.327 175.14 526.497 175.307 525.497 175.307ZM526.645 171.932C527.516 171.932 528.259 171.697 528.872 171.227C529.486 170.75 529.952 170.087 530.27 169.239C530.588 168.39 530.747 167.402 530.747 166.273C530.747 165.144 530.588 164.163 530.27 163.33C529.959 162.496 529.497 161.848 528.884 161.386C528.277 160.924 527.531 160.693 526.645 160.693C525.728 160.693 524.963 160.932 524.349 161.409C523.736 161.886 523.274 162.545 522.963 163.386C522.652 164.227 522.497 165.189 522.497 166.273C522.497 167.364 522.652 168.337 522.963 169.193C523.281 170.042 523.747 170.712 524.361 171.205C524.982 171.689 525.743 171.932 526.645 171.932ZM544.199 175.352C543.093 175.352 542.097 175.155 541.21 174.761C540.331 174.36 539.634 173.769 539.119 172.989C538.612 172.208 538.358 171.246 538.358 170.102C538.358 169.117 538.54 168.303 538.903 167.659C539.267 167.015 539.763 166.5 540.392 166.114C541.021 165.727 541.729 165.436 542.517 165.239C543.313 165.034 544.134 164.886 544.983 164.795C546.006 164.689 546.835 164.595 547.472 164.511C548.108 164.42 548.57 164.284 548.858 164.102C549.153 163.913 549.301 163.621 549.301 163.227V163.159C549.301 162.303 549.047 161.64 548.54 161.17C548.032 160.701 547.301 160.466 546.347 160.466C545.339 160.466 544.54 160.686 543.949 161.125C543.366 161.564 542.972 162.083 542.767 162.682L538.926 162.136C539.229 161.076 539.729 160.189 540.426 159.477C541.123 158.758 541.975 158.22 542.983 157.864C543.991 157.5 545.104 157.318 546.324 157.318C547.165 157.318 548.002 157.417 548.835 157.614C549.669 157.811 550.43 158.136 551.119 158.591C551.809 159.038 552.362 159.648 552.778 160.42C553.203 161.193 553.415 162.159 553.415 163.318V175H549.46V172.602H549.324C549.074 173.087 548.722 173.542 548.267 173.966C547.82 174.383 547.256 174.72 546.574 174.977C545.9 175.227 545.108 175.352 544.199 175.352ZM545.267 172.33C546.093 172.33 546.809 172.167 547.415 171.841C548.021 171.508 548.487 171.068 548.812 170.523C549.146 169.977 549.312 169.383 549.312 168.739V166.682C549.184 166.788 548.964 166.886 548.653 166.977C548.35 167.068 548.009 167.148 547.631 167.216C547.252 167.284 546.877 167.345 546.506 167.398C546.134 167.451 545.813 167.496 545.54 167.534C544.926 167.617 544.377 167.754 543.892 167.943C543.407 168.133 543.025 168.398 542.744 168.739C542.464 169.072 542.324 169.504 542.324 170.034C542.324 170.792 542.6 171.364 543.153 171.75C543.706 172.136 544.411 172.33 545.267 172.33ZM579.284 162.159L575.534 162.568C575.428 162.189 575.242 161.833 574.977 161.5C574.72 161.167 574.371 160.898 573.932 160.693C573.492 160.489 572.955 160.386 572.318 160.386C571.462 160.386 570.742 160.572 570.159 160.943C569.583 161.314 569.299 161.795 569.307 162.386C569.299 162.894 569.485 163.307 569.864 163.625C570.25 163.943 570.886 164.205 571.773 164.409L574.75 165.045C576.402 165.402 577.629 165.966 578.432 166.739C579.242 167.511 579.652 168.523 579.659 169.773C579.652 170.871 579.33 171.841 578.693 172.682C578.064 173.515 577.189 174.167 576.068 174.636C574.947 175.106 573.659 175.341 572.205 175.341C570.068 175.341 568.348 174.894 567.045 174C565.742 173.098 564.966 171.845 564.716 170.239L568.727 169.852C568.909 170.64 569.295 171.235 569.886 171.636C570.477 172.038 571.246 172.239 572.193 172.239C573.17 172.239 573.955 172.038 574.545 171.636C575.144 171.235 575.443 170.739 575.443 170.148C575.443 169.648 575.25 169.235 574.864 168.909C574.485 168.583 573.894 168.333 573.091 168.159L570.114 167.534C568.439 167.186 567.201 166.598 566.398 165.773C565.595 164.939 565.197 163.886 565.205 162.614C565.197 161.538 565.489 160.606 566.08 159.818C566.678 159.023 567.508 158.409 568.568 157.977C569.636 157.538 570.867 157.318 572.261 157.318C574.307 157.318 575.917 157.754 577.091 158.625C578.273 159.496 579.004 160.674 579.284 162.159ZM594.176 167.659V157.545H598.29V175H594.301V171.898H594.119C593.725 172.875 593.078 173.674 592.176 174.295C591.282 174.917 590.18 175.227 588.869 175.227C587.725 175.227 586.714 174.973 585.835 174.466C584.964 173.951 584.282 173.205 583.79 172.227C583.297 171.242 583.051 170.053 583.051 168.659V157.545H587.165V168.023C587.165 169.129 587.468 170.008 588.074 170.659C588.68 171.311 589.475 171.636 590.46 171.636C591.066 171.636 591.653 171.489 592.222 171.193C592.79 170.898 593.256 170.458 593.619 169.875C593.991 169.284 594.176 168.545 594.176 167.659ZM608.997 175.307C607.626 175.307 606.399 174.955 605.315 174.25C604.232 173.545 603.376 172.523 602.747 171.182C602.118 169.841 601.804 168.212 601.804 166.295C601.804 164.356 602.122 162.72 602.759 161.386C603.402 160.045 604.27 159.034 605.361 158.352C606.452 157.663 607.668 157.318 609.009 157.318C610.031 157.318 610.872 157.492 611.531 157.841C612.19 158.182 612.713 158.595 613.099 159.08C613.486 159.557 613.785 160.008 613.997 160.432H614.168V151.727H618.293V175H614.247V172.25H613.997C613.785 172.674 613.478 173.125 613.077 173.602C612.675 174.072 612.145 174.473 611.486 174.807C610.827 175.14 609.997 175.307 608.997 175.307ZM610.145 171.932C611.016 171.932 611.759 171.697 612.372 171.227C612.986 170.75 613.452 170.087 613.77 169.239C614.088 168.39 614.247 167.402 614.247 166.273C614.247 165.144 614.088 164.163 613.77 163.33C613.459 162.496 612.997 161.848 612.384 161.386C611.777 160.924 611.031 160.693 610.145 160.693C609.228 160.693 608.463 160.932 607.849 161.409C607.236 161.886 606.774 162.545 606.463 163.386C606.152 164.227 605.997 165.189 605.997 166.273C605.997 167.364 606.152 168.337 606.463 169.193C606.781 170.042 607.247 170.712 607.861 171.205C608.482 171.689 609.243 171.932 610.145 171.932ZM627.699 175.352C626.593 175.352 625.597 175.155 624.71 174.761C623.831 174.36 623.134 173.769 622.619 172.989C622.112 172.208 621.858 171.246 621.858 170.102C621.858 169.117 622.04 168.303 622.403 167.659C622.767 167.015 623.263 166.5 623.892 166.114C624.521 165.727 625.229 165.436 626.017 165.239C626.813 165.034 627.634 164.886 628.483 164.795C629.506 164.689 630.335 164.595 630.972 164.511C631.608 164.42 632.07 164.284 632.358 164.102C632.653 163.913 632.801 163.621 632.801 163.227V163.159C632.801 162.303 632.547 161.64 632.04 161.17C631.532 160.701 630.801 160.466 629.847 160.466C628.839 160.466 628.04 160.686 627.449 161.125C626.866 161.564 626.472 162.083 626.267 162.682L622.426 162.136C622.729 161.076 623.229 160.189 623.926 159.477C624.623 158.758 625.475 158.22 626.483 157.864C627.491 157.5 628.604 157.318 629.824 157.318C630.665 157.318 631.502 157.417 632.335 157.614C633.169 157.811 633.93 158.136 634.619 158.591C635.309 159.038 635.862 159.648 636.278 160.42C636.703 161.193 636.915 162.159 636.915 163.318V175H632.96V172.602H632.824C632.574 173.087 632.222 173.542 631.767 173.966C631.32 174.383 630.756 174.72 630.074 174.977C629.4 175.227 628.608 175.352 627.699 175.352ZM628.767 172.33C629.593 172.33 630.309 172.167 630.915 171.841C631.521 171.508 631.987 171.068 632.312 170.523C632.646 169.977 632.812 169.383 632.812 168.739V166.682C632.684 166.788 632.464 166.886 632.153 166.977C631.85 167.068 631.509 167.148 631.131 167.216C630.752 167.284 630.377 167.345 630.006 167.398C629.634 167.451 629.313 167.496 629.04 167.534C628.426 167.617 627.877 167.754 627.392 167.943C626.907 168.133 626.525 168.398 626.244 168.739C625.964 169.072 625.824 169.504 625.824 170.034C625.824 170.792 626.1 171.364 626.653 171.75C627.206 172.136 627.911 172.33 628.767 172.33ZM645.165 164.773V175H641.051V151.727H645.074V160.511H645.278C645.688 159.527 646.32 158.75 647.176 158.182C648.04 157.606 649.138 157.318 650.472 157.318C651.684 157.318 652.741 157.572 653.642 158.08C654.544 158.587 655.241 159.33 655.733 160.307C656.233 161.284 656.483 162.477 656.483 163.886V175H652.369V164.523C652.369 163.348 652.066 162.436 651.46 161.784C650.862 161.125 650.021 160.795 648.938 160.795C648.21 160.795 647.559 160.955 646.983 161.273C646.415 161.583 645.968 162.034 645.642 162.625C645.324 163.216 645.165 163.932 645.165 164.773ZM435.361 196.545V199.727H425.327V196.545H435.361ZM427.804 192.364H431.918V208.75C431.918 209.303 432.001 209.727 432.168 210.023C432.342 210.311 432.569 210.508 432.849 210.614C433.13 210.72 433.44 210.773 433.781 210.773C434.039 210.773 434.274 210.754 434.486 210.716C434.705 210.678 434.872 210.644 434.986 210.614L435.679 213.83C435.459 213.905 435.145 213.989 434.736 214.08C434.334 214.17 433.842 214.223 433.259 214.239C432.228 214.269 431.3 214.114 430.474 213.773C429.649 213.424 428.993 212.886 428.509 212.159C428.031 211.432 427.796 210.523 427.804 209.432V192.364ZM446.341 214.341C444.591 214.341 443.08 213.977 441.807 213.25C440.542 212.515 439.568 211.477 438.886 210.136C438.205 208.788 437.864 207.201 437.864 205.375C437.864 203.58 438.205 202.004 438.886 200.648C439.576 199.284 440.538 198.223 441.773 197.466C443.008 196.701 444.458 196.318 446.125 196.318C447.201 196.318 448.216 196.492 449.17 196.841C450.133 197.182 450.981 197.712 451.716 198.432C452.458 199.152 453.042 200.068 453.466 201.182C453.89 202.288 454.102 203.606 454.102 205.136V206.398H439.795V203.625H450.159C450.152 202.837 449.981 202.136 449.648 201.523C449.314 200.902 448.848 200.413 448.25 200.057C447.659 199.701 446.97 199.523 446.182 199.523C445.341 199.523 444.602 199.727 443.966 200.136C443.33 200.538 442.833 201.068 442.477 201.727C442.129 202.379 441.951 203.095 441.943 203.875V206.295C441.943 207.311 442.129 208.182 442.5 208.909C442.871 209.629 443.39 210.182 444.057 210.568C444.723 210.947 445.504 211.136 446.398 211.136C446.996 211.136 447.538 211.053 448.023 210.886C448.508 210.712 448.928 210.458 449.284 210.125C449.64 209.792 449.909 209.379 450.091 208.886L453.932 209.318C453.689 210.333 453.227 211.22 452.545 211.977C451.871 212.727 451.008 213.311 449.955 213.727C448.902 214.136 447.697 214.341 446.341 214.341ZM457.582 214V196.545H461.571V199.455H461.753C462.071 198.447 462.616 197.67 463.389 197.125C464.17 196.572 465.06 196.295 466.06 196.295C466.287 196.295 466.541 196.307 466.821 196.33C467.109 196.345 467.348 196.371 467.537 196.409V200.193C467.363 200.133 467.086 200.08 466.707 200.034C466.336 199.981 465.976 199.955 465.628 199.955C464.878 199.955 464.204 200.117 463.605 200.443C463.014 200.761 462.548 201.205 462.207 201.773C461.866 202.341 461.696 202.996 461.696 203.739V214H457.582ZM474.384 203.773V214H470.27V190.727H474.293V199.511H474.497C474.906 198.527 475.539 197.75 476.395 197.182C477.259 196.606 478.357 196.318 479.69 196.318C480.902 196.318 481.959 196.572 482.861 197.08C483.762 197.587 484.459 198.33 484.952 199.307C485.452 200.284 485.702 201.477 485.702 202.886V214H481.588V203.523C481.588 202.348 481.285 201.436 480.679 200.784C480.08 200.125 479.24 199.795 478.156 199.795C477.429 199.795 476.777 199.955 476.202 200.273C475.634 200.583 475.187 201.034 474.861 201.625C474.543 202.216 474.384 202.932 474.384 203.773ZM494.918 214.352C493.812 214.352 492.815 214.155 491.929 213.761C491.05 213.36 490.353 212.769 489.838 211.989C489.33 211.208 489.077 210.246 489.077 209.102C489.077 208.117 489.259 207.303 489.622 206.659C489.986 206.015 490.482 205.5 491.111 205.114C491.74 204.727 492.448 204.436 493.236 204.239C494.031 204.034 494.853 203.886 495.702 203.795C496.724 203.689 497.554 203.595 498.19 203.511C498.827 203.42 499.289 203.284 499.577 203.102C499.872 202.913 500.02 202.621 500.02 202.227V202.159C500.02 201.303 499.766 200.64 499.259 200.17C498.751 199.701 498.02 199.466 497.065 199.466C496.058 199.466 495.259 199.686 494.668 200.125C494.084 200.564 493.69 201.083 493.486 201.682L489.645 201.136C489.948 200.076 490.448 199.189 491.145 198.477C491.842 197.758 492.694 197.22 493.702 196.864C494.709 196.5 495.823 196.318 497.043 196.318C497.884 196.318 498.721 196.417 499.554 196.614C500.387 196.811 501.149 197.136 501.838 197.591C502.527 198.038 503.08 198.648 503.497 199.42C503.921 200.193 504.134 201.159 504.134 202.318V214H500.179V211.602H500.043C499.793 212.087 499.44 212.542 498.986 212.966C498.539 213.383 497.974 213.72 497.293 213.977C496.618 214.227 495.827 214.352 494.918 214.352ZM495.986 211.33C496.812 211.33 497.527 211.167 498.134 210.841C498.74 210.508 499.205 210.068 499.531 209.523C499.865 208.977 500.031 208.383 500.031 207.739V205.682C499.902 205.788 499.683 205.886 499.372 205.977C499.069 206.068 498.728 206.148 498.349 206.216C497.971 206.284 497.596 206.345 497.224 206.398C496.853 206.451 496.531 206.496 496.259 206.534C495.645 206.617 495.096 206.754 494.611 206.943C494.126 207.133 493.743 207.398 493.463 207.739C493.183 208.072 493.043 208.504 493.043 209.034C493.043 209.792 493.319 210.364 493.872 210.75C494.425 211.136 495.13 211.33 495.986 211.33ZM508.27 220.545V196.545H512.315V199.432H512.554C512.766 199.008 513.065 198.557 513.452 198.08C513.838 197.595 514.361 197.182 515.02 196.841C515.679 196.492 516.52 196.318 517.543 196.318C518.891 196.318 520.107 196.663 521.19 197.352C522.281 198.034 523.145 199.045 523.781 200.386C524.425 201.72 524.747 203.356 524.747 205.295C524.747 207.212 524.433 208.841 523.804 210.182C523.175 211.523 522.319 212.545 521.236 213.25C520.152 213.955 518.925 214.307 517.554 214.307C516.554 214.307 515.724 214.14 515.065 213.807C514.406 213.473 513.876 213.072 513.474 212.602C513.08 212.125 512.774 211.674 512.554 211.25H512.384V220.545H508.27ZM512.304 205.273C512.304 206.402 512.463 207.39 512.781 208.239C513.107 209.087 513.573 209.75 514.179 210.227C514.793 210.697 515.535 210.932 516.406 210.932C517.315 210.932 518.077 210.689 518.69 210.205C519.304 209.712 519.766 209.042 520.077 208.193C520.395 207.337 520.554 206.364 520.554 205.273C520.554 204.189 520.399 203.227 520.088 202.386C519.777 201.545 519.315 200.886 518.702 200.409C518.088 199.932 517.323 199.693 516.406 199.693C515.527 199.693 514.781 199.924 514.168 200.386C513.554 200.848 513.088 201.496 512.77 202.33C512.459 203.163 512.304 204.144 512.304 205.273ZM539.395 206.659V196.545H543.509V214H539.52V210.898H539.338C538.944 211.875 538.296 212.674 537.395 213.295C536.501 213.917 535.399 214.227 534.088 214.227C532.944 214.227 531.933 213.973 531.054 213.466C530.183 212.951 529.501 212.205 529.009 211.227C528.516 210.242 528.27 209.053 528.27 207.659V196.545H532.384V207.023C532.384 208.129 532.687 209.008 533.293 209.659C533.899 210.311 534.694 210.636 535.679 210.636C536.285 210.636 536.872 210.489 537.44 210.193C538.009 209.898 538.474 209.458 538.838 208.875C539.209 208.284 539.395 207.545 539.395 206.659ZM561.534 201.159L557.784 201.568C557.678 201.189 557.492 200.833 557.227 200.5C556.97 200.167 556.621 199.898 556.182 199.693C555.742 199.489 555.205 199.386 554.568 199.386C553.712 199.386 552.992 199.572 552.409 199.943C551.833 200.314 551.549 200.795 551.557 201.386C551.549 201.894 551.735 202.307 552.114 202.625C552.5 202.943 553.136 203.205 554.023 203.409L557 204.045C558.652 204.402 559.879 204.966 560.682 205.739C561.492 206.511 561.902 207.523 561.909 208.773C561.902 209.871 561.58 210.841 560.943 211.682C560.314 212.515 559.439 213.167 558.318 213.636C557.197 214.106 555.909 214.341 554.455 214.341C552.318 214.341 550.598 213.894 549.295 213C547.992 212.098 547.216 210.845 546.966 209.239L550.977 208.852C551.159 209.64 551.545 210.235 552.136 210.636C552.727 211.038 553.496 211.239 554.443 211.239C555.42 211.239 556.205 211.038 556.795 210.636C557.394 210.235 557.693 209.739 557.693 209.148C557.693 208.648 557.5 208.235 557.114 207.909C556.735 207.583 556.144 207.333 555.341 207.159L552.364 206.534C550.689 206.186 549.451 205.598 548.648 204.773C547.845 203.939 547.447 202.886 547.455 201.614C547.447 200.538 547.739 199.606 548.33 198.818C548.928 198.023 549.758 197.409 550.818 196.977C551.886 196.538 553.117 196.318 554.511 196.318C556.557 196.318 558.167 196.754 559.341 197.625C560.523 198.496 561.254 199.674 561.534 201.159ZM567.835 214.25C567.146 214.25 566.555 214.008 566.062 213.523C565.57 213.038 565.328 212.447 565.335 211.75C565.328 211.068 565.57 210.485 566.062 210C566.555 209.515 567.146 209.273 567.835 209.273C568.502 209.273 569.081 209.515 569.574 210C570.074 210.485 570.328 211.068 570.335 211.75C570.328 212.212 570.206 212.633 569.972 213.011C569.744 213.39 569.441 213.693 569.062 213.92C568.691 214.14 568.282 214.25 567.835 214.25Z" fill="black"/>
<path d="M116.734 180.07L109.094 153.427C105.453 152.839 102.305 149.933 101.296 146.414L95.5303 126.306C94.5213 122.787 95.7952 119.158 98.4268 116.227L97.9943 114.719C96.4087 109.189 90.2991 106.045 84.4174 107.731C78.5356 109.418 75.0207 115.322 76.6063 120.852C78.1919 126.382 84.3016 129.526 90.1833 127.839L79.4892 130.906C76.8157 131.673 74.863 134.953 75.5837 137.466L81.3496 157.574C82.0704 160.088 85.4646 161.835 88.1381 161.068L95.3455 186.203L116.734 180.07ZM154.347 109.441L143.653 112.507C149.535 110.821 153.05 104.916 151.465 99.3866C149.879 93.8568 143.769 90.7124 137.888 92.399C132.006 94.0855 128.491 99.9898 130.076 105.519L130.509 107.028C134.294 108.118 137.297 110.521 138.306 114.04L144.072 134.148C145.081 137.667 143.952 141.8 141.176 144.228L148.816 170.871L170.204 164.738L162.996 139.603C165.67 138.836 167.623 135.556 166.902 133.043L161.136 112.934C160.415 110.421 157.021 108.674 154.347 109.441ZM123.288 102.026C123.704 103.355 123.833 104.759 123.668 106.155C123.502 107.551 123.046 108.91 122.325 110.153C121.604 111.397 120.633 112.499 119.469 113.395C118.305 114.291 116.972 114.963 115.547 115.372C114.123 115.781 112.636 115.918 111.174 115.775C109.712 115.633 108.305 115.213 107.034 114.542C105.763 113.87 104.655 112.96 103.775 111.864C102.894 110.769 102.259 109.51 101.907 108.162C101.215 105.517 101.652 102.687 103.122 100.277C104.593 97.8662 106.982 96.0674 109.776 95.2654C112.571 94.4633 115.55 94.7217 118.075 95.9852C120.6 97.2487 122.472 99.4169 123.288 102.026Z" fill="#109CF1"/>
<path d="M126.384 112.824L104.996 118.957C102.322 119.724 100.37 123.005 101.091 125.519L106.859 145.634C107.58 148.148 110.974 149.896 113.648 149.129L122.3 179.302L143.688 173.169L135.036 142.997C137.709 142.23 139.662 138.949 138.941 136.435L133.173 116.32C132.452 113.805 129.058 112.057 126.384 112.824Z" fill="#109CF1"/>
<path d="M171.828 115.177L175.206 142.688C178.71 143.838 181.365 147.201 181.811 150.834L184.36 171.597C184.806 175.23 182.98 178.616 179.922 181.099L180.114 182.656C180.815 188.365 186.357 192.427 192.43 191.681C198.504 190.936 202.899 185.654 202.198 179.944C201.497 174.234 195.954 170.173 189.881 170.919L200.923 169.563C203.684 169.224 206.126 166.29 205.807 163.694L203.258 142.932C202.939 140.336 199.86 138.08 197.099 138.419L193.913 112.466L171.828 115.177ZM123.629 179.053L134.671 177.698C128.598 178.443 124.202 183.725 124.903 189.435C125.604 195.144 131.147 199.206 137.22 198.46C143.293 197.715 147.689 192.433 146.987 186.723L146.796 185.166C143.229 183.496 140.638 180.653 140.192 177.02L137.642 156.257C137.196 152.624 138.959 148.719 142.08 146.755L138.702 119.245L116.618 121.956L119.805 147.91C117.044 148.249 114.602 151.183 114.921 153.778L117.47 174.541C117.789 177.136 120.868 179.392 123.629 179.053ZM153.146 191.236C152.943 189.858 153.035 188.451 153.417 187.098C153.798 185.745 154.462 184.474 155.369 183.359C156.275 182.244 157.407 181.307 158.696 180.604C159.986 179.901 161.408 179.446 162.879 179.265C164.35 179.084 165.84 179.181 167.261 179.551C168.683 179.92 170.008 180.555 171.158 181.417C172.308 182.279 173.26 183.351 173.958 184.571C174.656 185.791 175.087 187.133 175.224 188.52C175.493 191.24 174.619 193.967 172.79 196.118C170.96 198.269 168.319 199.672 165.434 200.027C162.548 200.382 159.646 199.661 157.35 198.018C155.053 196.375 153.544 193.94 153.146 191.236Z" fill="#109CF1"/>
<path d="M151.777 180.087L173.861 177.375C176.622 177.036 179.064 174.101 178.745 171.505L176.195 150.735C175.876 148.139 172.797 145.882 170.036 146.221L166.211 115.066L144.127 117.778L147.952 148.932C145.191 149.271 142.75 152.206 143.068 154.803L145.619 175.572C145.937 178.168 149.017 180.426 151.777 180.087Z" fill="#109CF1"/>
<path d="M72 129.324H225.916L209.994 291.202H89.9127L72 129.324Z" fill="#505784"/>
<rect x="184.08" y="145.275" width="14.5955" height="129.085" rx="7.29776" transform="rotate(4.5 184.08 145.275)" fill="#333A74"/>
<rect x="140.997" y="145.5" width="14.5955" height="129.085" rx="7.29776" transform="rotate(-1 140.997 145.5)" fill="#333A74"/>
<rect x="99.8643" y="146.391" width="14.5955" height="129.085" rx="7.29776" transform="rotate(-4.5 99.8643 146.391)" fill="#333A74"/>
<path d="M103.957 63.4747C105.189 61.0034 108.191 59.9988 110.662 61.231L250.525 130.964C252.997 132.196 254.001 135.199 252.769 137.67L246.023 151.201L97.21 77.006L103.957 63.4747Z" fill="#3F4579"/>
<path fill-rule="evenodd" clip-rule="evenodd" d="M171.016 68.1251C166.073 65.6608 160.069 67.6699 157.605 72.6125L152.466 82.9191L203.818 108.522L208.956 98.2156C211.421 93.273 209.412 87.2686 204.469 84.8043L171.016 68.1251ZM171.514 79.1667C169.043 77.9345 166.041 78.9391 164.809 81.4103L161.81 87.4249L195.605 104.275L198.604 98.2599C199.836 95.7886 198.831 92.7864 196.36 91.5543L171.514 79.1667Z" fill="#505776"/>
</svg>
